<svg xmlns="http://www.w3.org/2000/svg" width="32" height="32" viewBox="0 0 24 24"><path fill="#f9f871" d="M11.5 3.385V2q0-.213.144-.356q.144-.144.357-.144t.356.144q.143.144.143.356v1.385q0 .212-.144.356T12 3.885t-.356-.144q-.143-.144-.143-.356ZM11.5 22v-1.385q0-.212.144-.356t.357-.144t.356.144q.143.144.143.356V22q0 .213-.144.356q-.144.144-.357.144t-.356-.144Q11.5 22.213 11.5 22ZM22 12.5h-1.385q-.212 0-.356-.144T20.115 12t.144-.356q.144-.143.356-.143H22q.213 0 .356.144q.144.144.144.357t-.144.356q-.143.143-.356.143Zm-18.615 0H2q-.213 0-.356-.144Q1.5 12.212 1.5 12t.144-.356Q1.788 11.5 2 11.5h1.385q.212 0 .356.144t.144.357t-.144.356q-.144.143-.356.143Zm16.019-7.19l-.735.734q-.14.14-.341.15q-.201.01-.37-.16q-.156-.155-.159-.346q-.003-.192.157-.357l.74-.74q.14-.147.344-.156q.204-.01.37.155q.165.166.162.36q-.003.194-.168.36ZM6.044 18.67l-.74.74q-.14.146-.344.155q-.204.01-.37-.155q-.165-.166-.162-.36q.003-.194.168-.36l.735-.734q.14-.14.341-.15q.201-.01.37.16q.156.155.159.346q.003.192-.157.357Zm12.646.734l-.734-.735q-.14-.14-.15-.341q-.01-.201.16-.37q.155-.156.347-.159q.19-.003.356.157l.74.74q.147.14.156.344q.01.204-.155.37q-.166.165-.36.162q-.194-.003-.36-.168ZM5.33 6.044l-.74-.74q-.146-.14-.155-.344q-.01-.204.155-.37q.166-.165.36-.162q.194.003.36.168l.734.735q.14.14.15.341q.01.201-.16.37q-.155.156-.346.159q-.192.003-.357-.157ZM12.006 17q-2.082 0-3.543-1.457Q7 14.086 7 12.005q0-2.082 1.457-3.543Q9.914 7 11.995 7q2.082 0 3.543 1.457Q17 9.914 17 11.995q0 2.082-1.457 3.543Q14.086 17 12.005 17Z"/></svg>